<!DOCTYPE svg PUBLIC "-//W3C//DTD SVG 1.1//EN" "http://www.w3.org/Graphics/SVG/1.1/DTD/svg11.dtd">
<!-- Uploaded to: SVG Repo, www.svgrepo.com, Transformed by: SVG Repo Mixer Tools -->
<svg fill="#000000" width="64px" height="64px" viewBox="0 0 24 24" id="favourite-alt" xmlns="http://www.w3.org/2000/svg" class="icon multi-color" stroke="#000000">
<g id="SVGRepo_bgCarrier" stroke-width="0"/>
<g id="SVGRepo_tracerCarrier" stroke-linecap="round" stroke-linejoin="round"/>
<g id="SVGRepo_iconCarrier">
<path id="secondary-fill" d="M20.86,7.78C19.72,14.76,12,18,12,18S4.28,14.76,3.14,7.78A4.63,4.63,0,0,1,7.5,4,4.79,4.79,0,0,1,12,9a4.79,4.79,0,0,1,4.5-5A4.63,4.63,0,0,1,20.86,7.78Z" style="fill: #2ca9bc; stroke-width: 2;"/>
<path id="primary-stroke" d="M21,9c0,8.18-9,12-9,12S3,17.22,3,9A4.79,4.79,0,0,1,7.5,4,4.79,4.79,0,0,1,12,9a4.79,4.79,0,0,1,4.5-5A4.79,4.79,0,0,1,21,9Z" style="fill: none; stroke: #000000; stroke-linecap: round; stroke-linejoin: round; stroke-width: 2;"/>
</g>
</svg>